<svg preserveAspectRatio="none" width="100%" height="100%" overflow="visible" style="display: block;" viewBox="0 0 169 133" fill="none" xmlns="http://www.w3.org/2000/svg">
<path id="Vector 22" d="M40.9447 124.03C29.4447 94.0301 5.05628 84.1189 1.05628 40.1189L75.0563 1.1189M75.0563 1.1189L98.0563 12.1189M75.0563 1.1189C77.0563 3.1189 82.0563 16.1189 84.5563 16.1189C86.5563 16.1189 94.3896 13.4522 98.0563 12.1189M98.0563 12.1189C111.556 29.1189 139.858 112.343 168.358 131.343M40.0563 44.1189L66.0563 30.6189M44.0563 50.6189L94.5563 24.1189M47.0563 57.6189L98.0563 30.6189M51.0563 63.6189L100.056 37.1189M28.5563 85.1189L103.556 44.1189M32.5563 90.6189L106.556 50.6189M38.0563 96.6189L108.056 57.6189M87.4534 93.3041L53.7079 112.924M92.8226 103.175L59.5508 120.339M10.0563 48.6189L28.5563 40.1189L43.0563 66.1189L22.5563 77.6189C18.8896 72.1031 11.2563 58.5811 10.0563 48.6189ZM118.05 78.4801C112.014 82.9345 99.5959 91.6433 98.2103 90.8433C96.4782 89.8433 114.991 110.778 113.924 113.626C113.071 115.904 127.041 107.241 134.132 102.624L118.05 78.4801Z" stroke="var(--stroke-0, black)" stroke-opacity="0.5" stroke-width="2"/>
</svg>
