<svg preserveAspectRatio="none" width="100%" height="100%" overflow="visible" style="display: block;" viewBox="0 0 428 442" fill="none" xmlns="http://www.w3.org/2000/svg">
<g id="Group 3">
<path id="Vector 6" d="M34.1813 181.15C43.2589 197.655 47.5502 189.953 22.9029 222.962" stroke="var(--stroke-0, white)" stroke-opacity="0.5" stroke-width="2" stroke-linejoin="round"/>
<path id="Vector 7" d="M20.7023 155.292C22.6279 160.335 27.1942 171.137 30.0551 173.998" stroke="var(--stroke-0, white)" stroke-opacity="0.5" stroke-width="2" stroke-linejoin="round"/>
<path id="Vector 8" d="M15.3363 102.477C14.0526 89.3645 21.3331 60.2242 60.7247 48.5607" stroke="var(--stroke-0, white)" stroke-opacity="0.5" stroke-width="2" stroke-linejoin="round"/>
<path id="Vector 16" d="M266.625 435.05C282.305 440.827 322.522 441.267 362.353 406.717" stroke="var(--stroke-0, white)" stroke-opacity="0.48" stroke-width="2"/>
<path id="Vector 17" d="M253.971 432.024C244.618 428.54 219.036 422.671 187.952 433.95" stroke="var(--stroke-0, white)" stroke-opacity="0.48" stroke-width="2"/>
<path id="Vector 18" d="M415.169 110.179C416.82 115.864 414.454 139.448 404.991 161.894M400.04 186.376C393.163 205.357 412.143 215.26 425.622 228.464" stroke="var(--stroke-0, white)" stroke-opacity="0.48" stroke-width="2"/>
<path id="Vector 19" d="M106.253 440.276C87.7305 442.019 49.3108 434.5 43.8091 390.487" stroke="var(--stroke-0, white)" stroke-opacity="0.48" stroke-width="2"/>
<path id="Vector 20" d="M186.301 49.1108C200.33 36.2737 231.58 5.15283 248.745 0.97159" stroke="var(--stroke-0, white)" stroke-opacity="0.48" stroke-width="2"/>
<path id="Vector 1" d="M18.9586 248.982C2.8938 289.474 23.0848 321.787 35.1884 332.882C66.1793 366.328 46.3174 386.92 65.5405 413.319C70.949 420.746 107.628 452.105 195.654 423.497C216.567 416.7 244.343 418.82 261.398 423.497C348.324 445.503 413.794 332.882 413.794 332.882C421.496 319.013 433.82 282.033 421.496 245.062C406.091 198.848 369.23 230.758 403.341 140.531C430.629 68.3498 328.614 18.6527 317.422 12.9621C287.531 -2.23615 249.477 9.38599 237.648 19.564C208.557 44.5964 198.587 59.7259 163.926 67.9783C149.507 71.4116 95.6202 52.2966 70.949 56.4249C1.90353 67.9783 21.8496 153.674 37.9392 174.435C63.5218 207.445 39.0395 198.367 18.9586 248.982Z" fill="var(--fill-0, white)" fill-opacity="0.32" stroke="var(--stroke-0, black)" stroke-opacity="0.22"/>
<path id="Vector 10" d="M61.9079 240.513C62.8847 262.618 73.7542 316.026 109.418 352.817M111.898 364.108C94.003 362.686 53.7594 347.912 35.9423 300.191L66.1777 302.111C66.4263 301.005 66.1872 298.349 63.2414 296.572C60.2957 294.794 41.472 291.305 32.4283 289.782L27.0445 260.413C28.8095 262.483 33.018 266.58 35.7327 266.409L50.8424 270.504C43.5647 260.922 35.6017 236.493 61.9712 215.436C78.5973 222.706 106.659 247.928 85.8996 290.655C88.5523 291.669 95.8302 289.514 103.72 272.777L118.722 290.369L99.9716 326.02C101.321 327.252 107.735 324.225 122.601 302.253C128.123 315.716 136.535 345.421 126.004 356.547C123.711 359.098 117.68 364.182 111.898 364.108Z" stroke="var(--stroke-0, white)" stroke-opacity="0.5" stroke-linejoin="round"/>
</g>
</svg>
