<svg preserveAspectRatio="none" width="100%" height="100%" overflow="visible" style="display: block;" viewBox="0 0 33 24" fill="none" xmlns="http://www.w3.org/2000/svg">
<path id="Vector 21" d="M0.499831 23.5002C0.499831 23.5002 0.543597 21.8102 0.718663 21.2765C0.893729 20.7429 7.79425 10.3805 11.2226 5.26599M11.2226 5.26599C11.6603 4.52476 12.7982 3.08677 13.8486 3.26467L16.4746 0.818602M11.2226 5.26599C11.2226 13.2712 23.2584 21.7213 30.4799 18.8305M16.4746 0.818602C22.6019 -0.960309 33.3247 4.95466 32.4494 12.6042M16.4746 0.818602C13.1921 10.3805 29.1669 16.6068 32.4494 12.6042M32.4494 12.6042L31.574 13.8272M22.3831 6.1555C20.8513 4.96953 18.0502 3.62049 19.1006 7.71208C20.4136 12.8266 25.0091 8.15682 22.3831 6.1555ZM22.3831 6.1555H26.3221C27.5621 6.67436 29.5608 7.93445 27.6351 8.82392C25.7093 9.7134 23.9149 9.19454 23.2584 8.82392M14.0674 3.48707C15.3804 11.27 25.0091 16.6068 30.6987 15.0503L31.574 13.8272M31.574 13.8272V17.2739L30.4799 18.8305M27.1974 23.5002L30.4799 18.8305" stroke="var(--stroke-0, black)" stroke-opacity="0.5"/>
</svg>
