<svg preserveAspectRatio="none" width="100%" height="100%" overflow="visible" style="display: block;" viewBox="0 0 43 73" fill="none" xmlns="http://www.w3.org/2000/svg">
<path id="Vector 5" d="M32.03 9.70862C25.4426 18.1339 12.6631 41.1556 14.2441 65.8405M11.6091 70.7643C5.46086 64.6369 -4.72764 46.6047 3.70422 23.4954L14.2441 33.6713C14.6832 33.3431 15.4298 32.2927 14.9028 30.717C14.3758 29.1414 8.53499 21.9635 5.68046 18.5715L12.9266 6.09779C12.9266 7.41082 13.1901 10.2338 14.2441 11.0216L18.5259 17.2585C18.8552 11.4593 23.5982 -0.00777755 39.9349 0.517433C43.7775 8.39559 46.1929 26.4497 25.1133 35.6409C25.772 36.8445 29.1316 38.3326 37.2999 34.6561V45.8168L19.1846 53.0385C19.2944 53.9138 22.6101 54.8111 34.9944 51.3972C32.7986 58.0717 26.5625 71.6178 19.1846 72.4056C17.5378 72.6245 13.717 72.6026 11.6091 70.7643Z" stroke="var(--stroke-0, white)" stroke-opacity="0.5" stroke-linejoin="round"/>
</svg>
