<svg preserveAspectRatio="none" width="100%" height="100%" overflow="visible" style="display: block;" viewBox="0 0 64 51" fill="none" xmlns="http://www.w3.org/2000/svg">
<path id="Vector 22" d="M15.5487 46.8434C11.2182 35.5465 2.0344 31.8143 0.528139 15.2455L28.3939 0.55945M28.3939 0.55945L37.0549 4.70166M28.3939 0.55945C29.147 1.31258 31.0299 6.20792 31.9713 6.20792C32.7244 6.20792 35.6742 5.20374 37.0549 4.70166M37.0549 4.70166C42.1385 11.1033 52.7961 42.4426 63.5281 49.5973M15.2141 16.7517L25.0048 11.6681M16.7204 19.1994L35.7369 9.22043M17.8501 21.8353L37.0549 11.6681M19.3564 24.0947L37.808 14.1158M10.8837 32.1909L39.126 16.7517M12.3899 34.262L40.2557 19.1994M14.461 36.5214L40.8205 21.8353M33.0622 35.2731L20.3548 42.6612M35.0841 38.9901L22.5551 45.4533M3.91722 18.4463L10.8837 15.2455L16.3438 25.0361L8.62427 29.3666C7.24354 27.2896 4.3691 22.1977 3.91722 18.4463ZM44.5838 29.6909C42.3109 31.3683 37.6347 34.6477 37.1129 34.3465C36.4606 33.9699 43.432 41.8531 43.0302 42.9256C42.7087 43.7836 47.9694 40.5212 50.6399 38.7828L44.5838 29.6909Z" stroke="var(--stroke-0, black)" stroke-opacity="0.5"/>
</svg>
