<svg preserveAspectRatio="none" width="100%" height="100%" overflow="visible" style="display: block;" viewBox="0 0 76 54" fill="none" xmlns="http://www.w3.org/2000/svg">
<path id="Vector 21" d="M0.99965 52.7163C0.99965 52.7163 1.09965 48.9163 1.49965 47.7163C1.89965 46.5163 17.6663 23.2163 25.4997 11.7163M25.4997 11.7163C26.4997 10.0496 29.0997 6.81629 31.4997 7.21629L37.4997 1.71628M25.4997 11.7163C25.4997 29.7162 52.9997 48.7164 69.4996 42.2164M37.4997 1.71628C51.4997 -2.28363 75.9997 11.0163 73.9997 28.2163M37.4997 1.71628C29.9997 23.2164 66.4997 37.2164 73.9997 28.2163M73.9997 28.2163L71.9997 30.9663M50.9997 13.7164C47.4997 11.0497 41.0997 8.01637 43.4997 17.2164C46.4997 28.7164 56.9997 18.2164 50.9997 13.7164ZM50.9997 13.7164H59.9997C62.833 14.883 67.3997 17.7164 62.9997 19.7164C58.5997 21.7164 54.4997 20.5497 52.9997 19.7164M31.9997 7.71637C34.9997 25.2164 56.9997 37.2164 69.9997 33.7164L71.9997 30.9663M71.9997 30.9663V38.7164L69.4996 42.2164M61.9997 52.7163L69.4996 42.2164" stroke="var(--stroke-0, black)" stroke-opacity="0.5" stroke-width="2"/>
</svg>
