<svg preserveAspectRatio="none" width="100%" height="100%" overflow="visible" style="display: block;" viewBox="0 0 112 191" fill="none" xmlns="http://www.w3.org/2000/svg">
<path id="Vector 5" d="M83.5783 25.1726C66.3256 47.2889 32.8553 107.721 36.996 172.519M30.0948 185.444C13.9923 169.359 -12.6918 122.025 9.39161 61.3629L36.996 88.0748C38.1462 87.2131 40.1015 84.4558 38.7212 80.3197C37.341 76.1837 22.0436 57.3418 14.5675 48.4378L33.5454 15.6942C33.5454 19.1409 34.2355 26.5513 36.996 28.6193L48.2102 44.9911C49.0729 29.7682 61.4948 -0.332911 104.281 1.04577C114.346 21.7259 120.672 69.118 65.4629 93.2448C67.1882 96.4043 75.9871 100.311 97.3804 90.6598V119.957L49.9355 138.914C50.223 141.211 58.9069 143.567 91.342 134.605C85.5911 152.126 69.2585 187.684 49.9355 189.752C45.6223 190.327 35.6157 190.269 30.0948 185.444Z" stroke="var(--stroke-0, white)" stroke-opacity="0.5" stroke-width="2" stroke-linejoin="round"/>
</svg>
