<svg preserveAspectRatio="none" width="100%" height="100%" overflow="visible" style="display: block;" viewBox="0 0 753 782" fill="none" xmlns="http://www.w3.org/2000/svg">
<path id="Vector 1" d="M11.3316 442.794C-17.8684 516.394 18.8316 575.128 40.8316 595.294C97.1622 656.088 61.0602 693.517 96.0011 741.5C105.832 755 172.501 812 332.501 760C370.514 747.646 421.001 751.5 452.001 760C610.001 800 729.001 595.294 729.001 595.294C743.001 570.086 765.401 502.869 743.001 435.669C715.001 351.669 648.001 409.669 710.001 245.669C759.601 114.469 574.174 24.1378 553.832 13.7943C499.501 -13.8307 430.332 7.29427 408.832 25.7943C355.953 71.2942 337.832 98.7942 274.832 113.794C248.622 120.035 150.675 85.2905 105.832 92.7942C-19.6683 113.794 16.5866 269.559 45.8317 307.294C92.3317 367.294 47.8316 350.794 11.3316 442.794Z" fill="var(--fill-0, white)" fill-opacity="0.32" stroke="var(--stroke-0, black)" stroke-opacity="0.22"/>
</svg>
