<svg preserveAspectRatio="none" width="100%" height="100%" overflow="visible" style="display: block;" viewBox="0 0 752 596" fill="none" xmlns="http://www.w3.org/2000/svg">
<g id="Group 1">
<path id="Vector 1" d="M10.8305 442.294C-18.3695 515.894 18.3305 574.628 40.3305 594.794H728.5C742.5 569.586 764.9 502.369 742.5 435.169C714.5 351.169 647.5 409.169 709.5 245.169C759.1 113.969 573.673 23.6378 553.331 13.2944C499 -14.3306 429.831 6.79431 408.331 25.2943C355.452 70.7943 337.331 98.2943 274.331 113.294C248.121 119.535 150.174 84.7906 105.331 92.2943C-20.1694 113.294 16.0855 269.059 45.3306 306.794C91.8306 366.794 47.3305 350.294 10.8305 442.294Z" fill="var(--fill-0, white)" fill-opacity="0.36"/>
<path id="Vector 3" d="M40.5 595H728.5" stroke="var(--stroke-0, black)" stroke-width="2" stroke-linecap="round" stroke-linejoin="round"/>
<path id="Vector 6" d="M43.5 319C60 349 67.8 335 23 395" stroke="var(--stroke-0, white)" stroke-opacity="0.5" stroke-width="2" stroke-linejoin="round"/>
<path id="Vector 8" d="M11.2466 182C8.91328 158.167 22.1466 105.2 93.7466 84" stroke="var(--stroke-0, white)" stroke-opacity="0.5" stroke-width="2" stroke-linejoin="round"/>
<path id="Vector 9" d="M712.882 275C695.882 337.5 686.382 349 724.382 382.5" stroke="var(--stroke-0, white)" stroke-opacity="0.5" stroke-width="2" stroke-linejoin="round"/>
<path id="Vector 14" d="M526.5 271C530 274.167 537.5 281.6 539.5 286C541.5 290.4 540.333 304.833 539.5 311.5C538.563 319 529 325 524 323.5" stroke="var(--stroke-0, white)" stroke-opacity="0.5" stroke-width="2"/>
<path id="Vector 10" d="M95.7662 199.432C107.173 234.386 148.356 315.048 221.835 358.068M230.832 375.04C201.551 380.732 130.544 374.999 80.7704 306.534L130.031 296.145C129.936 294.264 128.371 290.119 122.863 288.585C117.356 287.05 85.6662 289.846 70.5099 291.435L48.8133 246.815C52.5604 249.343 61.1222 254.027 65.3925 252.546L91.4057 252.373C75.4877 240.274 51.8617 204.711 84.7012 159.257C114.556 163.493 170.712 191.376 156.503 269.022C161.201 269.466 171.893 262.775 177.072 232.466L208.922 253.949L194.779 319.373C197.487 320.746 206.409 313.043 220.424 271.248C235.26 290.342 261.954 334.153 250.049 356.654C247.514 361.759 240.122 372.583 230.832 375.04Z" stroke="var(--stroke-0, white)" stroke-opacity="0.5" stroke-width="2" stroke-linejoin="round"/>
<path id="Vector 5" d="M543.832 71.699C566.432 100.701 610.274 179.95 604.85 264.923M613.89 281.872C634.983 260.78 669.936 198.707 641.009 119.158L604.85 154.186C603.344 153.056 600.783 149.441 602.591 144.017C604.398 138.593 624.437 113.884 634.23 102.208L609.37 59.2694C609.37 63.7893 608.466 73.507 604.85 76.2189L590.161 97.6882C589.031 77.7255 572.759 38.2521 516.713 40.06C503.53 67.1792 495.244 129.327 567.562 160.966C565.302 165.109 553.776 170.232 525.753 157.576V195.995L587.901 220.854C587.524 223.868 576.149 226.956 533.663 215.205C541.196 238.18 562.59 284.81 587.901 287.522C593.551 288.276 606.659 288.2 613.89 281.872Z" stroke="var(--stroke-0, white)" stroke-opacity="0.5" stroke-width="2" stroke-linejoin="round"/>
<path id="Vector 15" d="M733 190.5C730 182 740 154.5 687.5 96" stroke="var(--stroke-0, white)" stroke-opacity="0.5" stroke-width="2"/>
<path id="Vector 4" d="M83.8633 497.027C73.8633 509.86 54.4633 544.927 56.8633 582.527M52.8633 590.027C43.5299 580.693 28.0633 553.227 40.8633 518.027L56.8633 533.527C57.5299 533.027 58.6633 531.427 57.8633 529.027C57.0633 526.627 48.1966 515.693 43.8633 510.527L54.8633 491.527C54.8633 493.527 55.2633 497.827 56.8633 499.027L63.3633 508.527C63.8633 499.693 71.0633 482.227 95.8633 483.027C101.697 495.027 105.363 522.527 73.3633 536.527C74.3633 538.36 79.4633 540.627 91.8633 535.027V552.027L64.3633 563.027C64.5299 564.36 69.5633 565.727 88.3633 560.527C85.0299 570.693 75.5633 591.327 64.3633 592.527C61.8633 592.86 56.0632 592.827 52.8633 590.027Z" stroke="var(--stroke-0, white)" stroke-opacity="0.5" stroke-width="2" stroke-linejoin="round"/>
</g>
</svg>
