<svg preserveAspectRatio="none" width="100%" height="100%" overflow="visible" style="display: block;" viewBox="0 0 131 156" fill="none" xmlns="http://www.w3.org/2000/svg">
<path id="Vector 11" d="M80.5272 89.1956C80.5272 140.196 62.0279 128.196 115.027 154.196C128.861 137.362 145.429 98.0954 101.029 75.6954C99.0287 73.5288 101.929 71.0954 129.529 78.6954C125.695 69.3621 117.129 49.7954 113.529 46.1954C102.196 47.5287 79.6299 49.1954 80.0287 45.1954C80.5272 40.1954 102.029 40.1954 103.529 35.1954C105.029 30.1954 83.0287 24.6954 81.5287 16.1954C80.0287 7.69541 52.0287 2.19541 46.5287 1.19541C40.5287 0.528747 28.2287 1.19541 27.0287 9.19541C25.5287 19.1954 0.0287134 14.6954 1.02871 21.6954C1.82871 27.2954 2.69538 41.0287 3.02871 47.1954C4.62871 58.3954 28.3621 35.3621 37.5288 27.6954C43.0288 54.6954 15.5288 62.6954 20.0288 66.6954C23.6288 69.8954 32.8621 84.0287 37.0288 90.6954C48.0288 61.1954 52.5288 54.1954 56.029 56.6954C53.5287 104.195 25.0287 89.1956 63.0279 116.696C72.0279 111.695 74.0279 85.1954 80.5272 89.1956Z" stroke="var(--stroke-0, white)" stroke-opacity="0.5" stroke-width="2" stroke-linejoin="round"/>
</svg>
