<svg preserveAspectRatio="none" width="100%" height="100%" overflow="visible" style="display: block;" viewBox="0 0 752 596" fill="none" xmlns="http://www.w3.org/2000/svg">
<g id="Group 2">
<path id="Vector 11" d="M10.8305 442.294C-18.3695 515.894 18.3305 574.628 40.3305 594.794H728.5C742.5 569.586 764.9 502.369 742.5 435.169C714.5 351.169 647.5 409.169 709.5 245.169C759.1 113.969 573.673 23.6378 553.331 13.2944C499 -14.3306 429.831 6.79431 408.331 25.2943C355.452 70.7943 337.331 98.2943 274.331 113.294C248.121 119.535 150.174 84.7906 105.331 92.2943C-20.1694 113.294 16.0855 269.059 45.3306 306.794C91.8306 366.794 47.3305 350.294 10.8305 442.294Z" fill="var(--fill-0, white)" fill-opacity="0.36"/>
<path id="Vector 5" d="M542.899 54.7186C565.484 83.7389 609.3 163.036 603.88 248.062M612.914 265.022C633.993 243.916 668.925 181.805 640.016 102.206L603.88 137.257C602.374 136.126 599.814 132.508 601.621 127.081C603.428 121.654 623.454 96.93 633.241 85.2465L608.397 42.2813C608.397 46.804 607.493 56.5277 603.88 59.2412L589.199 80.7238C588.07 60.7488 571.808 21.251 515.797 23.0601C502.622 50.196 494.341 112.382 566.614 144.041C564.355 148.187 552.837 153.312 524.831 140.649V179.091L586.941 203.966C586.564 206.981 575.196 210.071 532.736 198.313C540.264 221.303 561.645 267.961 586.941 270.675C592.587 271.429 605.687 271.353 612.914 265.022Z" stroke="var(--stroke-0, white)" stroke-opacity="0.5" stroke-width="2" stroke-linejoin="round"/>
<path id="Vector 10" d="M351.12 227.537C357.972 248.533 382.71 296.986 426.849 322.828M432.253 333.023C414.664 336.442 372.011 332.999 342.112 291.872L371.702 285.631C371.646 284.501 370.705 282.011 367.397 281.09C364.089 280.168 345.053 281.847 335.949 282.802L322.916 255.999C325.166 257.517 330.31 260.331 332.875 259.442L348.501 259.338C338.939 252.07 324.747 230.707 344.473 203.404C362.407 205.948 396.14 222.697 387.604 269.339C390.426 269.605 396.849 265.586 399.96 247.38L419.092 260.285L410.596 299.584C412.223 300.409 417.582 295.782 426.001 270.676C434.913 282.145 450.948 308.463 443.797 321.978C442.274 325.045 437.833 331.547 432.253 333.023Z" stroke="var(--stroke-0, white)" stroke-opacity="0.5" stroke-width="2" stroke-linejoin="round"/>
<path id="Vector 4" d="M73.8633 499.027C63.8633 511.86 44.4633 546.927 46.8633 584.527M42.8633 592.027C33.5299 582.693 18.0633 555.227 30.8633 520.027L46.8633 535.527C47.5299 535.027 48.6633 533.427 47.8633 531.027C47.0633 528.627 38.1966 517.693 33.8633 512.527L44.8633 493.527C44.8633 495.527 45.2633 499.827 46.8633 501.027L53.3633 510.527C53.8633 501.693 61.0633 484.227 85.8633 485.027C91.6966 497.027 95.3633 524.527 63.3633 538.527C64.3633 540.36 69.4633 542.627 81.8633 537.027V554.027L54.3633 565.027C54.5299 566.36 59.5633 567.727 78.3633 562.527C75.0299 572.693 65.5633 593.327 54.3633 594.527C51.8633 594.86 46.0632 594.827 42.8633 592.027Z" stroke="var(--stroke-0, white)" stroke-opacity="0.6" stroke-width="2" stroke-linejoin="round"/>
<path id="Vector 6" d="M43.5 319C60 349 67.8 335 23 395" stroke="var(--stroke-0, white)" stroke-opacity="0.5" stroke-width="2" stroke-linejoin="round"/>
<path id="Vector 7" d="M19 271C22.5 280.167 30.8 299.8 36 305" stroke="var(--stroke-0, white)" stroke-opacity="0.5" stroke-width="2" stroke-linejoin="round"/>
<path id="Vector 8" d="M11.1252 182C9.94084 162.544 16.6577 119.306 53 102" stroke="var(--stroke-0, white)" stroke-opacity="0.5" stroke-width="2" stroke-linejoin="round"/>
<path id="Vector 9" d="M712.882 275C695.882 337.5 686.382 349 724.382 382.5" stroke="var(--stroke-0, white)" stroke-opacity="0.5" stroke-width="2" stroke-linejoin="round"/>
<path id="Vector 13" d="M413 11C407 15.5 376 40 369 51.5C370 48.6667 366.6 39 345 23" stroke="var(--stroke-0, white)" stroke-opacity="0.5" stroke-width="2"/>
<path id="Vector 14" d="M29.4999 35C25.9999 38.1667 18.4999 45.6 16.4999 50C14.4999 54.4 15.6666 68.8333 16.4999 75.5C17.4374 83 27 89 32 87.5" stroke="var(--stroke-0, white)" stroke-opacity="0.5" stroke-width="2"/>
</g>
</svg>
