<svg preserveAspectRatio="none" width="100%" height="100%" overflow="visible" style="display: block;" viewBox="0 0 783 801" fill="none" xmlns="http://www.w3.org/2000/svg">
<g id="Group 3">
<path id="Vector 10" d="M86.7662 471.478C98.173 506.431 139.356 587.093 212.835 630.113M221.832 647.086C192.551 652.777 121.544 647.045 71.7704 578.579L121.031 568.19C120.936 566.309 119.371 562.164 113.863 560.63C108.356 559.096 76.6662 561.891 61.5099 563.481L39.8133 518.86C43.5604 521.388 52.1222 526.073 56.3925 524.591L82.4057 524.419C66.4877 512.319 42.8617 476.756 75.7012 431.302C105.556 435.538 161.712 463.421 147.503 541.068C152.201 541.511 162.893 534.82 168.072 504.511L199.922 525.994L185.779 591.419C188.487 592.791 197.409 585.088 211.424 543.294C226.26 562.387 252.954 606.198 241.049 628.699C238.514 633.804 231.122 644.629 221.832 647.086Z" stroke="var(--stroke-0, white)" stroke-opacity="0.5" stroke-width="2" stroke-linejoin="round"/>
<path id="Vector 6" d="M68.5 328.472C85 358.472 92.8 344.472 48 404.472" stroke="var(--stroke-0, white)" stroke-opacity="0.5" stroke-width="2" stroke-linejoin="round"/>
<path id="Vector 7" d="M44 281.472C47.5 290.638 55.8 310.272 61 315.472" stroke="var(--stroke-0, white)" stroke-opacity="0.5" stroke-width="2" stroke-linejoin="round"/>
<path id="Vector 8" d="M34.2466 185.472C31.9133 161.638 45.1466 108.672 116.747 87.4716" stroke="var(--stroke-0, white)" stroke-opacity="0.5" stroke-width="2" stroke-linejoin="round"/>
<path id="Vector 16" d="M491 789.972C519.5 800.472 592.6 801.272 665 738.472" stroke="var(--stroke-0, white)" stroke-opacity="0.48" stroke-width="2"/>
<path id="Vector 17" d="M468 784.472C451 778.138 404.5 767.472 348 787.972" stroke="var(--stroke-0, white)" stroke-opacity="0.48" stroke-width="2"/>
<path id="Vector 18" d="M761 199.472C764 209.805 759.7 252.672 742.5 293.472M733.5 337.972C721 372.472 755.5 390.472 780 414.472" stroke="var(--stroke-0, white)" stroke-opacity="0.48" stroke-width="2"/>
<path id="Vector 19" d="M199.5 799.472C165.833 802.638 96 788.972 86 708.972" stroke="var(--stroke-0, white)" stroke-opacity="0.48" stroke-width="2"/>
<path id="Vector 20" d="M345 88.4716C370.5 65.1383 427.3 8.57159 458.5 0.97159" stroke="var(--stroke-0, white)" stroke-opacity="0.48" stroke-width="2"/>
<path id="Vector 1" d="M40.8305 451.766C11.6305 525.366 48.3305 584.099 70.3305 604.266C126.661 665.06 90.5591 702.488 125.5 750.472C135.331 763.972 202 820.972 362 768.972C400.013 756.617 450.5 760.472 481.5 768.972C639.5 808.972 758.5 604.266 758.5 604.266C772.5 579.058 794.9 511.841 772.5 444.641C744.5 360.641 677.5 418.641 739.5 254.641C789.1 123.441 603.673 33.1094 583.331 22.766C529 -4.85901 459.831 16.2659 438.331 34.7659C385.452 80.2659 367.331 107.766 304.331 122.766C278.121 129.006 180.174 94.2621 135.331 101.766C9.83057 122.766 46.0855 278.53 75.3306 316.266C121.831 376.266 77.3305 359.766 40.8305 451.766Z" fill="var(--fill-0, white)" fill-opacity="0.32" stroke="var(--stroke-0, black)" stroke-opacity="0.22"/>
</g>
</svg>
